Coordinates
version=1
nRows=24
nColumns=22
inDegrees=yes

Units are S.I. units (second, meters, Newtons, ...)
If the header above contains a line with 'inDegrees', this indicates whether rotational values are in degrees (yes) or radians (no).

endheader
time	pelvis_tilt	pelvis_list	pelvis_rotation	pelvis_tx	pelvis_ty	pelvis_tz	hip_flexion_r	hip_adduction_r	hip_rotation_r	knee_angle_r	ankle_angle_r	subtalar_angle_r	hip_flexion_l	hip_adduction_l	hip_rotation_l	knee_angle_l	ankle_angle_l	subtalar_angle_l	lumbar_extension	lumbar_bending	lumbar_rotation
      1.84000000	      3.32127516	      2.08805085	    144.56531014	     -0.34518692	      0.94385418	      0.81370311	     11.04843546	     15.04208256	      1.71803907	    -21.46936071	     10.36414918	    -12.00728343	     26.40242266	    -10.06937786	      1.24759432	    -69.65225426	      5.43278416	      4.77828925	     -7.89802485	      2.22734761	      3.74211656
      1.85000000	      3.28029940	      2.00655850	    143.67446219	     -0.35052297	      0.94427613	      0.80763656	     10.09301332	     15.12042190	      2.59442522	    -20.97171298	     10.54189720	    -11.96988936	     27.44924576	     -9.81714565	      1.74948829	    -68.61154562	      5.89801974	      4.64018594	     -7.86612555	      2.08799705	      4.22866176
      1.86000000	      3.23980270	      1.92402842	    142.78270284	     -0.35584071	      0.94462235	      0.80160853	      9.13794418	     15.16891771	      3.46012827	    -20.46851921	     10.70869450	    -11.93690497	     28.39804380	     -9.55402154	      2.23424574	    -67.32201637	      6.29746034	      4.53619220	     -7.83934454	      1.95752196	      4.71220807
      1.87000000	      3.21395432	      1.84664999	    141.90242082	     -0.36112787	      0.94485327	      0.79565522	      8.21089588	     15.20600654	      4.33131054	    -19.99142019	     10.88236873	    -11.91263691	     29.26692885	     -9.27289918	      2.74576789	    -65.80645831	      6.65162839	      4.47225991	     -7.81370401	      1.85394746	      5.17923725
      1.88000000	      3.19505375	      1.76815707	    141.02201146	     -0.36641547	      0.94499812	      0.78971802	      7.29033842	     15.21914913	      5.19149240	    -19.51247930	     11.04898583	    -11.89358599	     30.03488284	     -8.98178893	      3.25489375	    -64.05689333	      6.94965720	      4.47206843	     -7.78314056	      1.76334184	      5.63636833
      1.89000000	      3.19552043	      1.68798279	    140.14583112	     -0.37166905	      0.94502384	      0.78382640	      6.40616005	     15.22183734	      6.06327663	    -19.06250299	     11.22061444	    -11.87919445	     30.71985320	     -8.67531006	      3.79572480	    -62.09137642	      7.20134595	      4.55167612	     -7.74399419	      1.69440716	      6.08349800
      1.90000000	      3.18145747	      1.61624481	    139.27345646	     -0.37694584	      0.94501413	      0.77793562	      5.49927174	     15.19158831	      6.89922770	    -18.60126560	     11.37742227	    -11.86664039	     31.26532384	     -8.35360778	      4.34449776	    -59.89610231	      7.42902811	      4.79026551	     -7.72321624	      1.63184604	      6.51672995
      1.91000000	      3.23764356	      1.51317244	    138.39424100	     -0.38209405	      0.94476345	      0.77209295	      4.72293707	     15.17742983	      7.78541346	    -18.22111414	     11.57666686	    -11.85215202	     31.80209779	     -8.03814179	      4.94700184	    -57.51952153	      7.58252531	      5.06625619	     -7.63537908	      1.59819476	      6.95598867
      1.92000000	      3.26054748	      1.43490261	    137.53770042	     -0.38728920	      0.94451600	      0.76625210	      3.89670326	     15.12916564	      8.60417107	    -17.82176554	     11.75204297	    -11.82459491	     32.16756059	     -7.69989911	      5.60740878	    -54.92864711	      7.78569209	      5.60896578	     -7.59492062	      1.57150514	      7.35147142
      1.93000000	      3.34949963	      1.30413510	    136.65649460	     -0.39236101	      0.94402490	      0.76040413	      3.20612491	     15.08198966	      9.47006258	    -17.49974883	     11.99127114	    -11.79525319	     32.52386215	     -7.38481853	      6.29356552	    -52.16989237	      7.86943847	      6.07810304	     -7.46832919	      1.55138960	      7.77972645
      1.94000000	      3.41207619	      1.22202470	    135.83696063	     -0.39750852	      0.94353396	      0.75457325	      2.46208739	     15.02790001	     10.24290644	    -17.16371444	     12.19300891	    -11.72674253	     32.70868117	     -7.05450765	      7.12466408	    -49.23369757	      8.07950539	      6.87658833	     -7.40317794	      1.56246230	      8.12006650
      1.95000000	      3.50478676	      1.11288375	    135.01626917	     -0.40260782	      0.94287985	      0.74871637	      1.79634070	     14.96822581	     11.02673618	    -16.88930356	     12.43754589	    -11.64960399	     32.82669520	     -6.74362570	      8.03079811	    -46.15191107	      8.22804120	      7.64223193	     -7.29522426	      1.57675255	      8.46306017
      1.96000000	      3.60072833	      1.00781398	    134.22544416	     -0.40771715	      0.94213110	      0.74283861	      1.15650502	     14.90427016	     11.77436334	    -16.65443024	     12.69093223	    -11.55857909	     32.83094446	     -6.44893086	      9.05764570	    -42.93795250	      8.39680643	      8.46725826	     -7.19041467	      1.60120784	      8.76886759
      1.97000000	      3.69876849	      0.90537427	    133.46082251	     -0.41283349	      0.94128458	      0.73693247	      0.54921264	     14.83699448	     12.47783201	    -16.47273846	     12.95464413	    -11.46163846	     32.72331077	     -6.18417656	     10.20816361	    -39.62116200	      8.59099684	      9.31699671	     -7.08645138	      1.63328401	      9.04372231
      1.98000000	      3.78681874	      0.80343223	    132.71612675	     -0.41792178	      0.94034916	      0.73099063	     -0.01491797	     14.76399650	     13.14097931	    -16.37785448	     13.24940889	    -11.37546304	     32.50203716	     -5.96329079	     11.45882065	    -36.23121066	      8.77427243	     10.12652667	     -6.99625081	      1.65592753	      9.28887668
      1.99000000	      3.91674598	      0.70492029	    132.00798076	     -0.42303004	      0.93926190	      0.72498300	     -0.52987193	     14.72399734	     13.73489476	    -16.31125523	     13.52684702	    -11.26691604	     32.23677677	     -5.83347998	     12.81074896	    -32.84504005	      9.05163304	     10.98024959	     -6.86802530	      1.71682124	      9.51094306
      2.00000000	      4.02222524	      0.59972684	    131.30223635	     -0.42808199	      0.93810319	      0.71891308	     -0.99262092	     14.67142123	     14.28315748	    -16.36274864	     13.86293500	    -11.21254242	     31.89011560	     -5.77574433	     14.14387671	    -29.48990063	      9.22942123	     11.57174103	     -6.75956224	      1.74488677	      9.72768258
      2.01000000	      4.15551701	      0.50568779	    130.59783781	     -0.43308203	      0.93683120	      0.71274056	     -1.40248499	     14.66143940	     14.81590002	    -16.49489580	     14.16542014	    -11.14932317	     31.54174172	     -5.84872968	     15.38032255	    -26.27753448	      9.48174141	     12.08725744	     -6.63893879	      1.79985635	      9.92956590
      2.02000000	      4.30352696	      0.40001293	    129.88996326	     -0.43803717	      0.93545580	      0.70646127	     -1.74677506	     14.66880768	     15.31668211	    -16.71700301	     14.47178135	    -11.09204226	     31.23324413	     -6.02018122	     16.39498804	    -23.28402764	      9.74497873	     12.44627441	     -6.49367418	      1.85131826	     10.13697982
      2.03000000	      4.46329574	      0.28492846	    129.17752415	     -0.44294902	      0.93400839	      0.70009317	     -2.02478090	     14.69509068	     15.79252045	    -17.03792431	     14.78035928	    -11.05286844	     30.99412607	     -6.26439345	     17.09443936	    -20.58705894	      9.98212314	     12.63476907	     -6.32967107	      1.90132612	     10.34736256
      2.04000000	      4.64241785	      0.14918259	    128.46933002	     -0.44785950	      0.93249969	      0.69365478	     -2.23240306	     14.73346675	     16.23339115	    -17.43693525	     15.09203288	    -11.04307183	     30.85852527	     -6.53886065	     17.46024807	    -18.25278049	     10.17450093	     12.71432393	     -6.12712439	      1.95488362	     10.55171697
      2.05000000	      4.75114321	      0.04263736	    127.72548817	     -0.45275234	      0.93113376	      0.68706379	     -2.46914073	     14.74396764	     16.66970260	    -17.93502389	     15.32431694	    -11.00687271	     30.70258537	     -6.80706288	     17.35479747	    -16.29430759	     10.42381119	     12.70896149	     -5.99711763	      1.95919079	     10.79249589
      2.06000000	      4.87784638	     -0.09922343	    127.00353460	     -0.45769116	      0.92975716	      0.68042777	     -2.62678043	     14.75377326	     17.07774105	    -18.50088515	     15.54734036	    -11.00181319	     30.65774930	     -7.02674995	     16.98573755	    -14.74960737	     10.57609388	     12.69506330	     -5.81047107	      1.96009989	     11.01314476
      2.07000000	      4.95804192	     -0.23928980	    126.27406373	     -0.46268737	      0.92851191	      0.67367154	     -2.78387079	     14.72928366	     17.47562744	    -19.13872081	     15.69397983	    -10.98726627	     30.62940346	     -7.17622399	     16.34844796	    -13.62547230	     10.73409028	     12.65520490	     -5.64540514	      1.92177861	     11.23221244
